<svg width="256" height="256" viewBox="0 0 256 256" fill="none" xmlns="http://www.w3.org/2000/svg">
<g clip-path="url(#clip0_672_377)">
<rect width="256" height="256" rx="36" fill="#73EE07"/>
<g clip-path="url(#clip1_672_377)">
<path d="M49.2306 190.498L6.55151 146.198L-119.075 233.272L-87.801 141.077L-203.463 205.087L1.16748 -88.0211L-166.376 -124.702L46.9721 -153.731L169.771 -89.9482L179.848 -237.276L251.335 -23.5408L338.789 -287.927L321.929 67.6527L272.986 105.488L303.423 185.947L238.169 171.661L273.739 220.231L49.2306 190.498Z" fill="white"/>
<path d="M166.477 230.755C166.498 248.524 166.562 284.788 166.647 287.697L218.238 237.571L316.639 266.34L233.548 336.668L132.776 314.606L67.1138 264.1L72.5864 239.103L166.477 230.755Z" fill="white"/>
<path d="M164.121 274.499L161.528 160.498L208.463 166.783L205.768 257.422L164.121 274.499Z" fill="white"/>
<path fill-rule="evenodd" clip-rule="evenodd" d="M219.323 157.554L216.14 264.611L153.893 290.134L150.669 148.362L219.323 157.554ZM172.388 172.635L174.349 258.864L195.397 250.234L197.603 176.012L172.388 172.635Z" fill="black"/>
<path fill-rule="evenodd" clip-rule="evenodd" d="M6.55151 146.198L49.2306 190.498L273.739 220.231L238.169 171.661L303.423 185.947L272.986 105.488L321.929 67.6527L338.789 -287.927L251.335 -23.5408L179.848 -237.276L169.771 -89.9482L46.9721 -153.731L-166.376 -124.702L1.16748 -88.0211L-203.463 205.087L-87.801 141.077L-119.075 233.272L6.55151 146.198ZM-80.5656 182.173L9.15699 119.985L58.8101 171.523L229.785 194.166L190.637 140.711L271.569 158.43L248.973 98.6969L302.337 57.444L311.819 -142.538L251.439 40.0014L192.945 -134.886L187.688 -58.0292L43.3696 -132.99L-51.4602 -120.087L34.8247 -101.196L-137.517 145.662L-52.1561 98.4216L-80.5656 182.173Z" fill="black"/>
<path d="M-57.869 71.8924L90.2743 104.326L94.7044 33.4418L221.704 -5.40768L338.789 -287.927L329.795 65.491L272.986 105.488L303.423 185.948L238.169 171.661L273.739 220.231L49.2305 190.498L-57.869 71.8924Z" fill="white"/>
<path fill-rule="evenodd" clip-rule="evenodd" d="M-57.869 71.8924L49.2305 190.498L273.739 220.231L238.169 171.661L303.423 185.948L272.986 105.488L329.795 65.491L338.789 -287.927L221.704 -5.40767L94.7044 33.4418L90.2743 104.326L-57.869 71.8924ZM113.852 48.5669L108.829 128.932L-1.05424 104.875L59.1723 171.572L229.785 194.167L214.992 152.175L271.569 158.43L248.723 98.0374L310.004 54.8915L315.996 -180.549L236.605 11.0165L113.852 48.5669Z" fill="black"/>
<path d="M123.832 158.249C129.676 159.528 135.503 155.587 136.848 149.446C138.192 143.305 134.545 137.29 128.701 136.011C122.856 134.731 117.029 138.672 115.685 144.813C114.34 150.954 117.988 156.969 123.832 158.249Z" fill="black"/>
<path d="M159.104 165.971C164.948 167.25 170.776 163.309 172.12 157.168C173.465 151.028 169.817 145.012 163.973 143.733C158.129 142.453 152.301 146.394 150.957 152.535C149.613 158.676 153.26 164.691 159.104 165.971Z" fill="black"/>
<path fill-rule="evenodd" clip-rule="evenodd" d="M289.94 -21.461C294.873 -17.655 295.787 -10.567 291.982 -5.62941L283.139 5.84584L301.762 15.1771L278.034 45.3468C274.18 50.2465 267.088 51.0936 262.193 47.2389C257.298 43.3842 256.454 36.2874 260.307 31.3878L266.926 22.9729L248.551 13.7661L274.118 -19.412C277.923 -24.3495 285.007 -25.2669 289.94 -21.461Z" fill="black"/>
<path d="M113.992 117.383L107.396 47.8887L212.151 73.3912L216.194 131.105L113.992 117.383Z" fill="white"/>
<path fill-rule="evenodd" clip-rule="evenodd" d="M94.6672 33.1719L222.827 64.3722L228.416 144.136L103.609 127.379L94.6672 33.1719ZM120.124 62.6053L124.375 107.388L203.973 118.075L201.475 82.41L120.124 62.6053Z" fill="black"/>
<path fill-rule="evenodd" clip-rule="evenodd" d="M265.181 68.2681C270.33 64.7569 277.348 66.0864 280.855 71.2376L294.839 91.7774C298.347 96.9287 297.016 103.951 291.867 107.462C286.718 110.974 279.701 109.644 276.194 104.493L262.209 83.9531C258.702 78.8018 260.033 71.7794 265.181 68.2681Z" fill="black"/>
<path d="M142.692 77.4432L115.07 112.457L153.773 121.828L142.692 77.4432Z" fill="black"/>
<path d="M26.4119 107.197L115.924 -55.5298L229.202 1.36955L26.4119 107.197Z" fill="white"/>
<path fill-rule="evenodd" clip-rule="evenodd" d="M120.387 -64.5172C125.346 -62.0522 127.368 -56.0306 124.903 -51.0676L60.8791 77.8489L224.569 -7.52867C229.481 -10.0903 235.536 -8.18348 238.095 -3.26961C240.653 1.64425 238.745 7.70435 233.834 10.266L15.4948 124.147L106.945 -59.9939C109.41 -64.957 115.428 -66.9821 120.387 -64.5172Z" fill="black"/>
<path fill-rule="evenodd" clip-rule="evenodd" d="M198.366 233.577C199.903 227.935 205.72 224.606 211.358 226.142L295.683 249.12L294.009 269.866L165.913 283.418L70.3146 238.715L154.246 220.909C159.963 219.696 165.578 223.35 166.788 229.07C167.999 234.791 164.345 240.411 158.628 241.624L136.546 246.309L169.547 261.74L235.745 254.736L205.792 246.574C200.154 245.038 196.829 239.219 198.366 233.577Z" fill="black"/>
<path fill-rule="evenodd" clip-rule="evenodd" d="M62.0148 266.863L70.1535 237.934L90.523 243.667L82.3843 272.596L62.0148 266.863Z" fill="black"/>
</g>
</g>
<defs>
<clipPath id="clip0_672_377">
<rect width="256" height="256" rx="36" fill="white"/>
</clipPath>
<clipPath id="clip1_672_377">
<rect width="530.783" height="607.063" fill="white" transform="translate(-109.168 -386) rotate(12.3492)"/>
</clipPath>
</defs>
</svg>
