<svg width="256" height="256" viewBox="0 0 256 256" fill="none" xmlns="http://www.w3.org/2000/svg">
<g clip-path="url(#clip0_1112_970)">
<rect width="256" height="256" rx="36" fill="#73EE07"/>
<g clip-path="url(#clip1_1112_970)">
<path d="M-234.806 451.608C-235.453 452.823 -237.019 455.686 -240.932 462.87C-248.11 448.151 -253.912 436.187 -259.687 424.304C-262.872 425.681 -267.595 427.76 -272.317 429.813C-273.451 424.385 -275.205 418.983 -275.583 413.474C-275.933 408.18 -274.881 402.779 -274.422 397.431C-272.074 369.802 -260.416 359.837 -232.296 361.133C-227.007 361.376 -221.69 360.728 -216.374 360.512C-216.293 359.297 -216.185 358.081 -216.104 356.866C-217.48 356.299 -218.857 355.651 -220.26 355.164C-225.468 353.382 -230.677 351.654 -235.912 349.925C-232.566 345.091 -229.84 339.635 -225.684 335.638C-222.284 332.343 -217.21 330.75 -212.866 328.427C-205.309 324.376 -195.783 318.056 -189.927 326.537C-186.122 332.046 -187.579 342.876 -189.684 350.492C-194.056 366.454 -192.976 372.827 -181.129 380.849C-174.679 385.197 -169.309 385.656 -163.291 379.525C-138.787 354.516 -113.339 330.48 -82.0341 314.005C-76.5828 311.142 -69.2424 310.359 -62.9815 310.899C-53.3203 311.71 -45.6561 310.278 -39.0983 302.338C-32.8644 294.776 -25.3891 288.213 -18.5614 281.137C-14.4055 276.843 -8.14459 273.305 -14.0547 265.608C-14.9182 264.474 -12.6783 259.288 -10.5734 257.857C-2.01859 251.996 -2.4234 245.325 -4.23151 235.738C-8.00964 215.833 -9.14307 195.416 -11.4099 174.809C-29.8688 182.911 -44.6306 199.197 -56.9365 218.696C-60.5527 224.422 -69.5663 233.469 -71.3474 232.47C-81.0896 227.014 -74.0731 218.588 -72.2379 211.215C-61.7401 169.488 -38.3697 135.459 -8.36047 104.157C-17.9947 88.9522 -27.521 72.8828 -27.3861 52.1951C-12.6514 69.4528 -0.91214 90.0055 26.9381 88.8712C16.8181 75.1514 25.8586 64.8886 31.4719 53.2484C46.3145 22.5409 60.0778 -8.67968 74.3537 -39.6842C76.1618 -43.6003 78.4557 -47.2463 80.5336 -51.0273L85.1754 -50.4872C85.1754 -43.4112 86.2009 -36.1462 84.9865 -29.2864C80.1828 -2.27892 83.907 24.2154 88.1169 53.2214C100.855 38.5563 111.892 25.4037 123.55 12.8452C126.303 9.87442 131.242 8.98318 135.182 7.11967C134.75 11.0898 134.858 15.2219 133.778 19.0029C131.215 27.8344 128.057 36.5038 124.468 47.2527C151.428 38.8264 175.905 30.8322 200.57 23.5672C218.112 18.3818 235.842 13.7635 253.707 9.82041C257.539 8.98318 262.262 12.1701 266.553 13.5204C264.016 16.6533 262.073 20.6774 258.889 22.811C237.137 37.206 215.116 51.2228 193.176 65.3747C193.635 66.7521 194.094 68.1025 194.552 69.4798C203.377 72.1536 212.04 75.6105 221.053 77.312C238.595 80.6069 249.389 89.7354 254.193 107.506C258.862 124.764 266.958 141.131 271.249 158.469C274.514 171.622 272.274 186.152 275.755 199.197C287.09 241.49 290.814 284.108 284.418 327.374C282.286 341.877 277.644 356.029 274.163 370.343C287.521 371.423 301.366 371.639 314.805 374.097C320.013 375.069 324.25 381.173 328.946 384.954C324.223 387.195 319.69 390.625 314.697 391.517C288.709 396.081 264.475 404.507 242.535 422.467C247.257 426.815 251.953 430.785 256.19 435.215C258.97 438.104 261.101 441.669 263.53 444.91C259.212 445.747 254.868 447.287 250.55 447.206C243.047 447.071 235.545 445.936 226.262 445.072C226.882 451.662 227.449 457.955 228.232 466.408C238.19 456.793 246.583 460.358 256.298 463.329C273.461 468.623 290.355 473.7 303.552 486.475C307.06 489.851 309.165 494.685 311.917 498.844C307.195 499.573 302.364 501.356 297.803 500.816C287.225 499.519 276.808 497.089 266.202 495.09C267.066 501.032 269.872 507.27 267.848 510.403C266.067 513.185 258.916 513.212 254.139 513.185C242.616 513.077 230.984 511.159 219.569 512.024C210.016 512.726 208.154 508.243 206.912 500.708C204.699 486.988 201.623 473.43 199.491 459.71C198.277 451.824 195.308 447.368 185.755 449.474C181.707 473.511 166.729 490.067 144.006 497.197C119.772 504.813 94.5127 509.134 69.685 514.778C54.1137 518.316 38.5154 521.773 22.8631 524.852C20.7852 525.257 18.2754 523.313 13.4448 521.557C12.1224 536.141 11.5287 549.267 9.50473 562.176C8.3443 569.469 6.13138 577.274 2.11038 583.323C-28.1957 628.75 -61.7941 671.206 -106.781 703.506C-112.853 707.882 -115.875 716.416 -120.544 722.871C-123.243 726.598 -126.427 730.001 -129.396 733.566C-132.175 730.082 -134.982 726.571 -138.409 722.277C-144.454 722.358 -148.961 722.844 -149.393 733.053C-149.744 741.668 -155.438 750.283 -159.567 758.494C-166.179 771.754 -172.871 785.069 -180.751 797.6C-183.288 801.651 -189.657 803.272 -194.272 806C-196.35 801.625 -199.696 797.411 -200.236 792.847C-202.098 777.723 -202.934 762.464 -204.554 742.586C-208.602 749.959 -212.056 753.821 -212.812 758.143C-214.512 767.811 -214.35 777.804 -215.996 787.5C-216.86 792.604 -219.882 797.357 -221.933 802.273C-225.225 798.114 -229.921 794.413 -231.54 789.687C-235.993 776.751 -239.151 763.355 -243.819 746.556C-249.244 757.494 -253.157 766.245 -257.879 774.509C-259.822 777.885 -263.547 780.262 -266.461 783.07C-268.836 779.397 -273.208 775.778 -273.289 772.051C-273.747 748.771 -272.398 725.734 -262.521 703.831C-255.693 688.679 -248.731 684.655 -235.022 693.352C-214.161 706.585 -192.383 710.717 -170.173 700.049C-146.559 688.706 -125.321 672.88 -111.612 650.032C-94.367 621.269 -78.4449 591.642 -63.0625 561.798C-51.1884 538.761 -41.689 514.481 -29.572 491.579C-26.1987 485.205 -17.8058 480.587 -10.7353 477.292C14.7941 465.463 40.7553 454.579 66.5276 443.236C67.553 442.777 68.1468 441.372 68.5515 440.859C29.097 434.62 -10.3035 428.382 -52.3218 421.711C-53.968 426.599 -55.5332 434.431 -59.1494 441.183C-62.9815 448.313 -67.5963 455.929 -73.9111 460.629C-109.129 486.988 -152.146 495.873 -191.789 512.429C-196.997 514.616 -202.26 519.991 -204.554 525.176C-209.249 535.79 -215.267 540.679 -227.357 538.437C-248.839 534.44 -270.536 531.631 -292.044 527.796C-296.2 527.067 -299.844 523.745 -303.892 521.989C-308.263 520.072 -312.824 518.586 -320.192 515.832C-319.301 531.307 -318.356 543.298 -318.06 555.29C-317.979 558.368 -319.868 561.501 -320.839 564.634C-323.727 562.96 -326.641 561.285 -329.529 559.611C-332.983 557.612 -336.465 555.641 -339.892 553.615C-342.078 552.319 -345.073 551.455 -346.18 549.51C-355.895 532.414 -365.853 515.4 -374.462 497.764C-378.753 488.959 -373.949 481.154 -366.447 475.537C-358.081 469.271 -349.499 463.329 -341.187 456.983C-332.47 450.339 -324.887 450.069 -318.626 460.169C-314.848 466.273 -309.802 471.945 -307.562 478.588C-303.001 492.065 -293.151 494.334 -280.71 496.116C-239.771 501.95 -206.928 483.828 -174.275 463.248C-139.246 441.183 -110.289 412.744 -84.0851 381.146C-73.8842 368.83 -61.2004 365.373 -45.5481 368.533C-30.4626 371.585 -15.0531 372.989 1.7056 375.312C-10.3035 347.954 -9.92569 346.738 9.36978 346.684C13.4718 333.964 0.788025 318.65 13.8766 306.74C22.2964 314.464 29.4478 322.486 38.0566 328.454C46.3685 334.207 56.1377 337.853 66.7705 340.715C55.4361 337.394 56.7044 329.507 54.9233 320.379C52.3865 307.199 44.0207 295.154 37.8677 282.082C11.9605 308.847 -18.9932 323.593 -49.1643 340.067C-86.0551 360.215 -122.325 381.821 -157.084 405.452C-169.633 413.987 -178.646 426.302 -195.54 429.138C-207.279 431.109 -211.435 428.409 -211.138 415.985C-212.596 416.525 -214.08 417.066 -215.537 417.606C-215.213 424.412 -214.728 431.19 -214.593 437.996C-214.458 444.883 -214.674 451.77 -214.728 458.657C-221.016 456.415 -227.33 454.201 -234.833 451.554L-234.806 451.608ZM-38.9094 540.544C-32.3516 546.107 -25.8208 551.671 -18.9122 557.531C-21.395 544.217 -23.9587 530.254 -26.5495 516.318C-28.1147 516.264 -29.68 516.183 -31.2452 516.129C-33.674 524.393 -36.1028 532.657 -38.5046 540.976C-44.3607 545.459 -50.4057 550.914 -44.6576 558.341C-36.9933 568.253 -27.7369 576.923 -19.1821 586.132C-20.4505 577.49 -24.5525 570.468 -28.1956 563.257C-31.9738 555.803 -35.3472 548.133 -38.8824 540.544H-38.9094ZM-206.281 362.862C-219.477 366.508 -232.539 370.802 -245.924 373.638C-259.768 376.581 -264.383 384.279 -261.307 398.16C-256.125 394.136 -251.78 389.491 -246.41 386.871C-238.152 382.82 -233.24 385.17 -235.48 395.514C-250.971 400.861 -254.614 410.044 -247.867 425.141C-243.981 415.499 -239.879 405.344 -235.777 395.19C-229.975 391.814 -224.173 388.411 -215.51 383.36C-240.581 427.139 -241.094 429.354 -227.492 435.431C-229.085 415.769 -217.561 403.265 -204.311 389.653C-203.177 400.078 -202.233 408.612 -200.964 420.279C-189.819 414.932 -180.913 410.665 -169.768 405.317C-175.867 403.751 -178.916 402.968 -182.479 402.049C-181.372 397.863 -180.508 394.541 -179.645 391.246C-180.805 391.949 -181.939 392.651 -183.099 393.326C-190.952 383.063 -198.778 372.8 -206.605 362.565C-194.677 357.919 -190.629 347.71 -195.216 330.642C-203.852 334.612 -212.218 338.447 -222.5 343.146C-201.747 348.656 -200.964 349.763 -206.308 362.862H-206.281ZM95.5922 494.361C112.351 489.175 131.323 485.07 148.567 477.184C157.77 472.971 168.996 463.086 170.534 454.228C175.149 427.517 168.672 402.86 146.111 384.171C141.227 380.119 138.096 371.693 137.611 365.049C136.72 352.518 138.339 339.797 138.906 327.05C117.937 330.291 97.7781 333.396 76.8365 336.637C78.1049 340.824 78.7525 343.875 79.9399 346.684C84.4737 357.244 86.4438 365.995 71.8709 371.18C66.3657 373.124 62.6145 380.308 58.3776 385.359C54.7884 389.653 51.6579 394.298 49.7958 396.783C41.5109 393.677 35.8167 390.274 29.7987 389.518C4.0264 386.25 -21.9618 384.63 -47.5721 380.633C-59.1494 378.823 -67.3534 380.822 -75.2874 389.14C-92.316 406.992 -109.075 425.249 -127.453 441.642C-155.762 466.921 -189.414 483.585 -223.822 499.357C-244.467 508.81 -264.329 509.242 -285.109 504.813C-292.611 503.219 -300.788 499.87 -306.212 494.739C-313.364 487.933 -318.087 478.589 -323.808 470.324C-329.124 462.654 -335.196 464.221 -338.246 471.188C-341.835 479.345 -342.968 488.554 -345.91 500.383C-332.902 490.895 -324.222 488.941 -319.868 494.523C-325.076 500.6 -330.716 506.325 -335.385 512.78C-343.103 523.475 -342.402 524.906 -329.313 529.66C-320.165 506.892 -317.439 507 -292.962 514.049C-268.728 521.017 -243.576 524.69 -218.803 529.795C-219.153 528.228 -219.531 526.662 -219.882 525.095C-216.994 521.098 -214.944 515.562 -211.057 513.347C-196.647 505.245 -181.804 497.764 -166.745 490.904C-144.319 480.695 -121.408 471.54 -98.9818 461.331C-82.7358 453.958 -68.136 444.694 -66.166 424.195C-65.7881 420.36 -63.6022 416.39 -61.2544 413.203C-59.6891 411.097 -56.1269 408.72 -53.914 409.125C-43.6051 410.989 -33.593 414.743 -23.2301 416.012C11.7986 420.333 46.9352 423.898 80.6956 427.598C84.2038 417.714 86.8485 410.287 89.4933 402.887C90.7076 403.211 91.922 403.535 93.1094 403.859C94.5128 409.774 95.916 415.715 97.4003 421.9C100.423 421.468 103.364 421.063 106.279 420.658C106.819 421.738 107.358 422.818 107.898 423.871C97.8861 432.622 87.874 441.399 78.7795 449.366C83.907 463.086 89.4392 477.94 95.5922 494.334V494.361ZM83.2863 302.338C73.8949 305.606 66.8784 308.037 59.619 310.575C61.6969 315.545 63.7479 320.379 66.2307 326.267C84.2848 323.566 101.88 320.919 115.319 318.894C121.041 310.143 123.685 302.878 128.84 298.8C148.972 282.812 152.048 263.987 140.822 241.76C140.093 240.329 139.5 238.843 138.852 237.385C139.823 236.872 140.795 236.332 141.739 235.819C147.542 245.973 153.371 256.128 159.227 266.364C182.462 262.556 184.837 261.206 178.306 240.761C175.365 231.524 170.129 223.017 165.137 212.484C149.566 220.397 131.781 219.587 118.207 233.037C102.879 248.242 79.1573 246.243 74.2458 229.067C69.2262 211.458 56.2996 211.485 45.7478 207.515C35.7628 221.64 26.5333 234.684 17.9515 246.811C22.0805 255.237 26.3174 263.879 31.6608 274.79C39.1631 262.448 45.6399 251.861 52.0897 241.247C42.1586 282.704 45.2621 289.725 83.2863 302.338ZM115.616 168.948C112.648 179.751 111.352 187.34 108.438 194.254C105.307 201.681 107.952 205.057 114.564 207.461C127.221 212.106 139.23 210.108 151.671 205.759C171.668 198.791 171.803 199.305 179.521 218.939C182.139 225.61 184.675 232.389 188.049 238.681C190.234 242.76 193.257 248.107 197.008 249.268C209.314 253.103 206.48 256.398 198.654 262.772C194.121 266.472 188.804 273.035 189.074 278.031C189.56 287.079 193.959 295.91 197.683 307.901C226.424 268.038 253.356 230.363 264.583 182.425C252.331 173.648 240.187 164.924 226.559 155.174C224.454 162.115 222.726 166.68 221.674 171.379C219.11 182.776 217.383 194.362 214.172 205.543C213.2 208.973 208.558 211.323 205.59 214.186C202.513 210.81 198.708 207.839 196.63 203.923C195.389 201.573 197.062 197.819 197.062 194.686C197.143 179.454 197.089 164.195 197.089 145.398C182.651 159.226 172.099 170.137 160.522 179.832C157.743 182.155 151.32 181.723 147.164 180.48C136.693 177.348 126.546 173.053 115.562 168.948H115.616ZM88.6027 88.4661C92.1109 86.9266 96.4558 85.9274 99.6672 83.4427C110.759 74.7733 119.098 77.9602 126.816 88.223C134.777 98.8369 143.251 109.073 152.183 120.362C156.96 105.157 147.569 88.8982 159.497 74.7193C174.15 90.8427 164.057 111.395 171.938 128.275C178.36 127.843 184.567 127.168 190.801 127.087C204.537 126.898 206.427 130.49 199.464 142.724C199.086 143.372 199.41 144.452 199.41 146.073C201.758 148.126 204.483 150.529 207.938 153.527C208.99 150.394 209.638 148.747 210.124 147.045C211.392 142.535 212.606 137.998 213.848 133.46C218.948 135.027 224.535 135.729 229.014 138.349C236.787 142.886 243.884 148.612 251.278 153.824C248.418 137.242 243.317 122.603 237.812 108.127C236.004 103.374 234.196 96.6493 230.499 94.9208C214.684 87.6288 198.142 81.9303 181.923 75.4485C178.576 74.1251 175.581 71.9105 172.423 70.128C174.744 66.617 176.39 62.2148 179.548 59.7842C190.585 51.2498 202.163 43.4177 213.524 35.3154C183.65 41.6352 155.017 50.3856 126.735 60.0813C106.684 66.9681 106.9 67.5623 109.841 46.7396C109.922 46.2264 109.059 45.5783 109.328 45.9564C89.0614 53.1133 88.7646 70.2901 88.5757 88.4391L88.6027 88.4661ZM155.692 167.328C155.8 148.585 148.216 141.644 132.402 142.319C119.475 142.886 106.414 142.535 93.5952 141.077C90.9505 140.779 86.4437 133.244 87.1994 130.166C92.8396 107.29 97.3194 104.833 120.879 108.803C122.417 109.073 124.09 108.452 126.276 108.181C122.903 101.052 119.934 94.7588 116.885 88.223C106.009 95.596 95.8351 102.915 85.2293 109.532C80.8845 112.26 75.5951 113.475 70.7375 115.392C71.9519 110.234 72.5996 104.833 74.5156 99.9442C77.754 91.707 85.4722 83.4427 84.7975 75.7726C82.3957 48.9272 77.2143 22.3249 73.0583 -4.60156C61.1572 20.6504 49.1751 45.5242 37.8677 70.7222C36.5454 73.666 37.8407 78.7974 39.6218 81.9843C49.0132 98.7289 53.0342 119.471 73.2473 129.247H63.8019C62.3446 137.323 61.0493 144.507 60.2667 149.017C76.8905 151.096 92.6776 152.285 108.141 155.255C123.793 158.253 139.068 163.034 155.719 167.328H155.692ZM33.3879 147.693C33.334 146.559 33.253 145.425 33.199 144.29C40.2426 140.482 47.2591 136.647 53.493 133.271C48.9862 125.196 45.8558 118.336 41.5919 112.26C37.1931 105.994 32.7672 98.0267 26.4254 95.2449C18.4913 91.761 8.58716 92.8143 2.65009 92.2201C0.14032 99.269 -1.28995 105.373 -4.12354 110.72C-7.22702 116.608 -11.9767 121.631 -15.377 127.384C-24.2826 142.373 -32.8644 157.578 -42.1208 173.648C-26.0098 167.949 -12.4355 163.142 1.73254 158.118C3.16284 175.295 4.45819 190.635 5.72656 205.948C11.3398 202.221 13.7146 198.035 16.6022 194.254C22.2424 186.827 26.7762 176.483 34.3325 173.026C46.1796 167.598 46.2066 158.496 48.9862 149.665C43.0761 148.909 38.2185 148.288 33.3879 147.666V147.693ZM182.354 273.926C177.389 276.438 173.206 278.571 168.888 280.732C169.428 283.622 169.725 285.836 170.237 287.997C185.674 355.327 200.921 422.683 216.978 489.851C218.193 494.982 224.319 500.789 229.446 502.652C235.599 504.867 243.182 503.165 250.145 503.165C250.28 502.139 250.415 501.14 250.55 500.113C243.452 497.926 236.355 495.765 229.257 493.578C229.365 492.227 229.5 490.904 229.608 489.553C247.635 488.716 265.662 487.906 283.689 487.069C283.689 485.637 283.689 484.233 283.716 482.802C263.422 480.857 245.206 459.791 220.514 483.18C217.167 438.942 214.118 399.025 211.068 358.811C197.845 361.457 198.25 351.221 196.549 343.119C191.827 320.406 187.212 297.666 182.327 273.899L182.354 273.926ZM243.02 386.331C242.292 385.791 241.59 385.251 240.861 384.738C244.829 382.631 248.984 380.768 252.736 378.31C255.515 376.473 260.076 373.503 259.833 371.612C258.214 359.999 255.461 348.548 252.574 334.612C247.122 339.149 244.316 341.931 241.077 344.037C237.596 346.306 233.683 347.954 229.986 349.898C228.717 345.091 226.073 340.148 226.478 335.503C227.503 323.566 229.878 311.764 231.767 299.583C216.331 294.614 210.205 308.604 199.356 312.574C202.324 324.241 202.028 337.826 208.639 345.145C216.654 354.03 216.816 362.943 218.058 372.611C220.19 389.437 222.133 406.29 223.779 423.196C224.697 432.784 229.122 436.943 239.377 434.728C238.325 432.595 237.812 430.191 236.328 428.841C227.341 420.604 227.287 415.256 239.458 409.368C255.299 401.725 270.088 391.895 287.494 381.767C271.518 383.414 257.296 384.9 243.074 386.385L243.02 386.331ZM-165.828 395.811L-163.318 399.187C-161.051 398.322 -158.568 397.836 -156.571 396.567C-129.72 379.525 -103.327 361.781 -76.0701 345.469C-49.6501 329.642 -21.8808 316.058 4.37723 299.961C24.2394 287.808 24.3204 283.271 8.96497 256.938C5.96945 259.882 5.07889 264.69 2.51514 268.336C-4.69031 278.544 -11.7068 289.185 -20.4775 297.963C-29.3021 306.821 -40.6365 320.622 -50.0279 319.974C-73.1015 318.38 -90.6159 323.89 -106.619 339.878C-125.807 359.054 -146.02 377.203 -165.774 395.784L-165.828 395.811ZM267.416 226.663C254.112 248.458 242.535 267.417 230.661 286.89C245.152 284.027 246.745 285.566 244.559 299.637C243.29 307.874 241.941 316.085 240.295 326.375C254.922 316.922 262.883 323.188 268.307 340.121C273.623 300.069 276.106 265.23 267.389 226.69L267.416 226.663ZM-256.584 739.372C-249.972 733.566 -245.061 728.353 -239.258 724.599C-236.506 722.817 -231.945 723.789 -228.194 723.519C-228.302 726.814 -228.302 730.109 -228.491 733.377C-229.031 741.722 -229.651 750.094 -230.218 758.44C-223.93 752.498 -221.987 745.719 -217.831 740.777C-214.566 736.888 -208.602 733.35 -203.798 733.269C-200.317 733.215 -195 738.481 -193.57 742.478C-189.846 752.903 -187.822 763.949 -184.53 777.102C-178.134 764.435 -172.817 753.875 -166.772 741.857H-182.02C-188.658 734.781 -192.868 729.785 -197.618 725.383C-202.206 721.115 -207.387 717.496 -212.245 713.499C-231.675 697.511 -251.052 704.155 -255.639 728.434C-256.206 731.405 -256.206 734.484 -256.611 739.318L-256.584 739.372ZM170.318 333.018C163.005 336.637 158.498 338.555 154.342 341.067C151.967 342.498 148.324 344.983 148.405 346.846C148.891 357.703 148.081 368.479 158.363 377.122C173.611 389.977 185.593 405.587 186.16 427.193C186.213 429.435 188.831 431.623 190.262 433.864C191.179 433.459 192.097 433.054 193.014 432.649C185.539 399.835 178.09 367.021 170.345 333.045L170.318 333.018ZM13.3638 365.778C18.2214 381.848 34.7912 380.254 41.8347 377.905C53.7359 373.908 63.0193 362.051 73.4901 353.436C55.3551 346.684 39.9727 340.959 24.4284 335.179C22.3774 346.873 38.2455 363.321 13.3638 365.805V365.778ZM94.8096 206.435C97.2654 195.145 100.072 182.047 102.906 168.975L99.5323 168.219C98.2639 173.08 96.6447 177.861 95.8081 182.776C94.1349 192.499 93.4333 202.275 81.3433 205.894C79.2653 206.516 76.8095 213.565 77.9699 215.887C80.9924 221.856 85.0674 230.147 90.3028 231.551C100.558 234.279 109.814 228.878 116.966 218.453C109.922 214.645 103.661 211.242 94.8096 206.435ZM74.8125 154.148C72.2218 154.445 69.631 154.715 67.0403 155.012C65.2592 171.919 63.4781 188.853 61.616 206.516C77.0524 202.086 77.6191 202.167 82.4227 172.702C83.3402 167.085 77.5111 160.36 74.8125 154.148ZM-8.54938 575.896C0.113373 559.287 -10.6813 511.105 -25.0922 504.975C-19.5599 528.66 -14.1896 551.752 -8.54938 575.896ZM-38.6125 615.624C-19.479 598.691 -22.4205 582.945 -46.1958 568.01C-43.713 583.512 -41.3112 598.718 -38.6125 615.624ZM-48.9754 564.58C-50.5137 564.58 -52.0789 564.553 -53.6172 564.526C-60.8226 587.05 -49.7581 609.196 -51.9709 635.232C-47.95 630.37 -45.3592 628.669 -45.4132 627.102C-46.3847 606.253 -47.734 585.403 -48.9754 564.553V564.58ZM41.8078 498.412C47.9877 484.26 53.0342 472.728 59.1872 458.657C27.9366 468.488 31.7148 467.029 41.8078 498.412ZM144.492 331.776C166.621 317.975 168.672 308.415 155.368 282.812C151.59 299.772 148.243 314.842 144.492 331.776ZM-103.273 690.435C-90.6429 679.902 -82.9517 651.382 -86.298 632.936C-87.4854 632.639 -88.6729 632.369 -89.8603 632.072C-94.1511 650.734 -98.442 669.369 -103.273 690.408V690.435ZM-85.7583 672.556C-63.3593 653.705 -61.3083 653.327 -80.1451 636.231C-81.9532 647.979 -83.7343 659.511 -85.7583 672.556ZM23.7807 210.648C24.4014 211.458 24.9141 212.133 24.9141 212.133C33.253 206.327 41.5379 200.493 51.2531 193.633C49.472 189.663 46.3415 182.695 42.3205 173.756C35.25 187.853 29.4479 199.359 23.7807 210.648ZM-13.2181 491.309C-1.96463 496.71 6.32028 500.654 15.1449 504.894V478.75C5.53769 483.018 -2.50436 486.556 -13.2181 491.309ZM-76.7177 617.245C-83.5993 633.017 -65.1135 635.475 -61.6592 646.116C-57.2603 631.883 -70.4298 626.4 -76.7177 617.245ZM-60.2289 588.455C-61.1734 588.293 -62.118 588.131 -63.0625 587.969C-66.6247 595.099 -70.16 602.229 -73.8571 609.683C-69.5663 614.463 -65.6262 618.892 -60.2289 624.942V588.455ZM65.9338 452.958C71.4931 467.84 76.5936 481.505 82.3417 496.927C82.7196 472.107 76.7285 455.902 65.9338 452.958ZM-130.745 690.273C-136.385 699.05 -140.568 705.532 -144.724 712.041C-143.807 712.986 -142.889 713.904 -141.945 714.85C-135.549 711.771 -129.153 708.692 -122.055 705.262C-125.051 700.076 -127.021 696.674 -130.718 690.273H-130.745ZM-107.213 687.167C-104.757 674.419 -102.976 665.318 -101.222 656.216C-101.869 655.973 -102.544 655.73 -103.192 655.46C-107.941 661.24 -112.691 667.019 -118.007 673.474C-114.85 677.471 -112.016 681.09 -107.24 687.14L-107.213 687.167ZM27.3159 474.24L22.1885 474.753C23.8616 486.961 25.5348 499.168 27.208 511.375C28.8812 511.159 30.5543 510.97 32.2275 510.754C30.5813 498.574 28.9351 486.394 27.2889 474.213L27.3159 474.24ZM-19.398 495.603C-20.1537 497.089 -20.9363 498.547 -21.6919 500.032C-12.3275 505.461 -2.96313 510.889 6.40125 516.318C7.23782 514.697 8.07443 513.077 8.91101 511.456C-0.507324 506.163 -9.9527 500.897 -19.371 495.603H-19.398ZM-177.027 726.787C-175.975 727.948 -174.922 729.109 -173.87 730.244L-150.58 710.555C-151.876 709.07 -153.171 707.612 -154.439 706.126C-161.969 713.013 -169.498 719.9 -177.027 726.787ZM-120.895 678.876C-122.055 678.984 -123.243 679.065 -124.403 679.173C-124.403 683.17 -125.968 688.409 -124.025 690.894C-121.435 694.216 -116.145 695.404 -112.016 697.511L-110.343 694.216L-120.895 678.876Z" fill="black"/>
<path d="M83.2593 302.338C45.2351 289.725 42.1586 282.703 52.0627 241.247C45.6129 251.861 39.1631 262.448 31.6338 274.79C26.2904 263.879 22.0535 255.21 17.9246 246.81C26.5063 234.684 35.7358 221.64 45.7208 207.515C56.2726 211.485 69.1992 211.458 74.2188 229.067C79.1303 246.243 102.852 248.242 118.18 233.037C131.754 219.587 149.539 220.397 165.11 212.484C170.102 223.017 175.338 231.524 178.279 240.761C184.837 261.205 182.462 262.556 159.2 266.364C153.344 256.128 147.542 245.973 141.712 235.818C140.741 236.332 139.769 236.872 138.825 237.385C139.473 238.843 140.066 240.329 140.795 241.76C152.021 263.987 148.945 282.811 128.813 298.8C123.658 302.905 121.014 310.143 115.292 318.893C101.853 320.919 84.2578 323.539 66.2037 326.266C63.721 320.379 61.697 315.544 59.592 310.575C66.8514 308.036 73.8679 305.606 83.2593 302.338Z" fill="white"/>
<path d="M88.5487 88.4928C88.7106 70.3438 89.0345 53.167 109.301 46.0101C109.032 45.632 109.868 46.2801 109.814 46.7933C106.873 67.589 106.657 67.0219 126.708 60.135C154.99 50.4393 183.623 41.6889 213.497 35.3691C202.136 43.4714 190.558 51.3035 179.521 59.8379C176.363 62.2686 174.744 66.6978 172.396 70.1817C175.554 71.9912 178.549 74.1788 181.896 75.5022C198.088 81.984 214.657 87.6555 230.472 94.9746C234.169 96.676 235.977 103.428 237.785 108.181C243.317 122.657 248.391 137.295 251.251 153.878C243.857 148.665 236.76 142.94 228.987 138.403C224.508 135.783 218.921 135.081 213.821 133.514C212.579 138.051 211.365 142.589 210.097 147.099C209.611 148.8 208.99 150.421 207.911 153.581C204.483 150.583 201.758 148.179 199.383 146.127C199.383 144.506 199.059 143.426 199.437 142.778C206.4 130.516 204.51 126.951 190.774 127.14C184.54 127.221 178.306 127.897 171.911 128.329C164.003 111.449 174.123 90.9234 159.47 74.773C147.542 88.9789 156.933 105.21 152.156 120.416C143.197 109.126 134.75 98.8906 126.789 88.2767C119.071 77.9869 110.732 74.827 99.6402 83.4964C96.4558 85.9811 92.0839 86.9804 88.5757 88.5198L88.5487 88.4928Z" fill="white"/>
<path d="M155.638 167.328C139.014 163.034 123.712 158.253 108.06 155.255C92.5967 152.285 76.8095 151.123 60.1857 149.017C60.9953 144.506 62.2907 137.322 63.721 129.247H73.1663C52.9803 119.471 48.9323 98.7019 39.5409 81.9843C37.7598 78.8244 36.4644 73.693 37.7868 70.7222C49.0942 45.5242 61.0763 20.6234 72.9774 -4.60156C77.1334 22.3249 82.3148 48.9272 84.7166 75.7726C85.3913 83.4427 77.6731 91.7069 74.4347 99.9442C72.5187 104.833 71.8709 110.207 70.6565 115.392C75.5141 113.475 80.7766 112.26 85.1484 109.532C95.7542 102.915 105.928 95.596 116.804 88.223C119.88 94.7588 122.849 101.052 126.195 108.181C124.009 108.452 122.336 109.073 120.798 108.803C97.2384 104.833 92.7317 107.29 87.1184 130.166C86.3628 133.271 90.8696 140.779 93.5143 141.077C106.333 142.508 119.395 142.859 132.321 142.319C148.135 141.644 155.719 148.585 155.611 167.328H155.638ZM46.8003 90.0055C64.5306 105.724 63.9639 74.9083 77.7541 79.9587C72.3837 73.0448 66.9864 66.1579 61.616 59.244C60.4016 59.5681 59.1602 59.9192 57.9458 60.2433C57.0553 71.1543 65.4481 85.3602 46.8273 90.0325L46.8003 90.0055Z" fill="white"/>
<path d="M33.334 147.721C38.1916 148.342 43.0222 148.963 48.9323 149.719C46.1797 158.551 46.1527 167.652 34.2785 173.081C26.6953 176.538 22.1885 186.881 16.5483 194.309C13.6607 198.09 11.3128 202.303 5.67263 206.003C4.37727 190.663 3.10891 175.322 1.67861 158.173C-12.4894 163.196 -26.0637 168.003 -42.1747 173.702C-32.9183 157.659 -24.3365 142.454 -15.4309 127.438C-12.0036 121.686 -7.28096 116.662 -4.17749 110.775C-1.34389 105.427 0.0863876 99.3234 2.59615 92.2744C8.53322 92.8686 18.4374 91.8153 26.3714 95.2992C32.7133 98.081 37.1391 106.021 41.5379 112.314C45.8018 118.391 48.9323 125.25 53.4391 133.326C47.2321 136.702 40.1886 140.51 33.1451 144.345C33.1991 145.479 33.28 146.613 33.334 147.748V147.721Z" fill="white"/>
<path d="M267.389 226.69C276.106 265.257 273.623 300.096 268.307 340.121C262.856 323.188 254.922 316.922 240.295 326.375C241.941 316.085 243.29 307.874 244.559 299.637C246.718 285.566 245.152 284.027 230.661 286.89C242.535 267.417 254.112 248.458 267.416 226.663L267.389 226.69Z" fill="white"/>
<path d="M94.8097 206.462C103.661 211.269 109.949 214.672 116.966 218.48C109.814 228.878 100.558 234.279 90.3029 231.579C85.0674 230.201 80.9655 221.91 77.97 215.914C76.8095 213.592 79.2653 206.543 81.3433 205.921C93.4333 202.302 94.135 192.526 95.8082 182.803C96.6717 177.888 98.264 173.08 99.5323 168.246L102.906 169.002C100.072 182.074 97.2385 195.146 94.8097 206.462Z" fill="white"/>
<path d="M46.8003 90.0053C65.4211 85.333 57.0282 71.1271 57.9188 60.2161C59.1332 59.892 60.3746 59.5409 61.589 59.2168C66.9593 66.1307 72.3567 73.0176 77.727 79.9315C63.9368 74.8811 64.5306 105.724 46.7733 89.9783L46.8003 90.0053Z" fill="black"/>
<path d="M127.463 116.716C126.87 113.772 103.553 116.338 100.477 119.417C97.7781 122.118 97.7781 135.621 97.7781 135.621C97.7781 135.621 124.765 135.621 127.463 135.621H135.559C135.559 135.621 136.963 124.818 128.165 116.716" fill="white"/>
<path d="M109.167 115.582L108.573 124.818L118.585 130.76L122.633 118.985L124.765 111.314L109.167 115.582Z" fill="black"/>
</g>
</g>
<defs>
<clipPath id="clip0_1112_970">
<rect width="256" height="256" rx="36" fill="white"/>
</clipPath>
<clipPath id="clip1_1112_970">
<rect width="705" height="857" fill="white" transform="translate(-376 -51)"/>
</clipPath>
</defs>
</svg>
